<svg xmlns="http://www.w3.org/2000/svg" width="80" height="80" viewBox="0 0 80 80" role="img" aria-label="Numbered tickets"><defs><linearGradient id="green" x1="0" y1="0" x2=".65" y2="1"><stop stop-color="#31BD79"/><stop offset="1" stop-color="#16A05D"/></linearGradient><linearGradient id="gold" x1="0" y1="0" x2=".65" y2="1"><stop stop-color="#FFE28A"/><stop offset="1" stop-color="#FEC84B"/></linearGradient><linearGradient id="red" x1="0" y1="0" x2=".65" y2="1"><stop stop-color="#FF9190"/><stop offset="1" stop-color="#FF5B5B"/></linearGradient><linearGradient id="blue" x1="0" y1="0" x2=".65" y2="1"><stop stop-color="#85C1FF"/><stop offset="1" stop-color="#4D9DFF"/></linearGradient><linearGradient id="purple" x1="0" y1="0" x2=".65" y2="1"><stop stop-color="#B1A0FF"/><stop offset="1" stop-color="#8472D9"/></linearGradient></defs><g transform="rotate(-12 40 40)"><path d="M15 23H65Q65 28 70 28V32Q65 35 70 38V42Q65 45 70 48V52Q65 52 65 57H15Q15 52 10 52V48Q15 45 10 42V38Q15 35 10 32V28Q15 28 15 23Z" fill="#087443" transform="translate(0 2)"/><path d="M15 23H65Q65 28 70 28V32Q65 35 70 38V42Q65 45 70 48V52Q65 52 65 57H15Q15 52 10 52V48Q15 45 10 42V38Q15 35 10 32V28Q15 28 15 23Z" fill="url(#green)"/><rect x="18" y="29" width="44" height="22" rx="5" fill="none" stroke="#087443" stroke-width="1.6"/><path d="M35 33L33 47M43 33L41 47M30 38H46M29 43H45" fill="none" stroke="#FFFFFF" stroke-width="2.8" stroke-linecap="round"/></g></svg>